<?xml version="1.0" encoding="UTF-8" standalone="no"?>
<!DOCTYPE svg PUBLIC "-//W3C//DTD SVG 1.1//EN"
 "http://www.w3.org/Graphics/SVG/1.1/DTD/svg11.dtd">
<!-- Generated by graphviz version 2.26.3 (20100126.1600)
 -->
<!-- Title: asciidoc Pages: 1 -->
<svg width="336pt" height="268pt"
 viewBox="0.00 0.00 336.00 268.00" xmlns="http://www.w3.org/2000/svg" xmlns:xlink="http://www.w3.org/1999/xlink">
<g id="graph1" class="graph" transform="scale(1 1) rotate(0) translate(4 264)">
<title>asciidoc</title>
<polygon fill="white" stroke="white" points="-4,5 -4,-264 333,-264 333,5 -4,5"/>
<!-- asciidoc -->
<g id="node1" class="node"><title>asciidoc</title>
<polygon fill="#ececff" stroke="#ececff" points="72.5,-223 245.5,-223 257.5,-235 257.5,-247 245.5,-259 72.5,-259 60.5,-247 60.5,-235 72.5,-223"/>
<path fill="#ececff" stroke="#ececff" d="M245.5,-223C251.5,-223 257.5,-229 257.5,-235"/>
<path fill="#ececff" stroke="#ececff" d="M257.5,-247C257.5,-253 251.5,-259 245.5,-259"/>
<path fill="#ececff" stroke="#ececff" d="M72.5,-259C66.5,-259 60.5,-253 60.5,-247"/>
<path fill="#ececff" stroke="#ececff" d="M60.5,-235C60.5,-229 66.5,-223 72.5,-223"/>
<polyline fill="none" stroke="#6699ff" points="72.5,-223 245.5,-223 "/>
<path fill="none" stroke="#6699ff" d="M245.5,-223C251.5,-223 257.5,-229 257.5,-235"/>
<polyline fill="none" stroke="#6699ff" points="257.5,-235 257.5,-247 "/>
<path fill="none" stroke="#6699ff" d="M257.5,-247C257.5,-253 251.5,-259 245.5,-259"/>
<polyline fill="none" stroke="#6699ff" points="245.5,-259 72.5,-259 "/>
<path fill="none" stroke="#6699ff" d="M72.5,-259C66.5,-259 60.5,-253 60.5,-247"/>
<polyline fill="none" stroke="#6699ff" points="60.5,-247 60.5,-235 "/>
<path fill="none" stroke="#6699ff" d="M60.5,-235C60.5,-229 66.5,-223 72.5,-223"/>
<text text-anchor="middle" x="159" y="-236.9" font-family="Times Roman,serif" font-size="14.00">asciidoc + graphviz + png</text>
</g>
<!-- xhtml -->
<g id="node2" class="node"><title>xhtml</title>
<polygon fill="#ececff" stroke="#ececff" points="11.5,-149 134.5,-149 146.5,-161 146.5,-173 134.5,-185 11.5,-185 -0.5,-173 -0.5,-161 11.5,-149"/>
<path fill="#ececff" stroke="#ececff" d="M134.5,-149C140.5,-149 146.5,-155 146.5,-161"/>
<path fill="#ececff" stroke="#ececff" d="M146.5,-173C146.5,-179 140.5,-185 134.5,-185"/>
<path fill="#ececff" stroke="#ececff" d="M11.5,-185C5.5,-185 -0.5,-179 -0.5,-173"/>
<path fill="#ececff" stroke="#ececff" d="M-0.5,-161C-0.5,-155 5.5,-149 11.5,-149"/>
<polyline fill="none" stroke="#6699ff" points="11.5,-149 134.5,-149 "/>
<path fill="none" stroke="#6699ff" d="M134.5,-149C140.5,-149 146.5,-155 146.5,-161"/>
<polyline fill="none" stroke="#6699ff" points="146.5,-161 146.5,-173 "/>
<path fill="none" stroke="#6699ff" d="M146.5,-173C146.5,-179 140.5,-185 134.5,-185"/>
<polyline fill="none" stroke="#6699ff" points="134.5,-185 11.5,-185 "/>
<path fill="none" stroke="#6699ff" d="M11.5,-185C5.5,-185 -0.5,-179 -0.5,-173"/>
<polyline fill="none" stroke="#6699ff" points="-0.5,-173 -0.5,-161 "/>
<path fill="none" stroke="#6699ff" d="M-0.5,-161C-0.5,-155 5.5,-149 11.5,-149"/>
<text text-anchor="middle" x="73" y="-162.9" font-family="Times Roman,serif" font-size="14.00">xhtml + svg + png</text>
</g>
<!-- asciidoc&#45;&gt;xhtml -->
<g id="edge3" class="edge"><title>asciidoc&#45;&gt;xhtml</title>
<path fill="none" stroke="black" d="M137.742,-222.708C126.911,-213.388 113.582,-201.92 101.84,-191.816"/>
<polygon fill="black" stroke="black" points="103.877,-188.951 94.0139,-185.082 99.3112,-194.257 103.877,-188.951"/>
</g>
<!-- docbook -->
<g id="node3" class="node"><title>docbook</title>
<polygon fill="#ececff" stroke="#ececff" points="176,-149 316,-149 328,-161 328,-173 316,-185 176,-185 164,-173 164,-161 176,-149"/>
<path fill="#ececff" stroke="#ececff" d="M316,-149C322,-149 328,-155 328,-161"/>
<path fill="#ececff" stroke="#ececff" d="M328,-173C328,-179 322,-185 316,-185"/>
<path fill="#ececff" stroke="#ececff" d="M176,-185C170,-185 164,-179 164,-173"/>
<path fill="#ececff" stroke="#ececff" d="M164,-161C164,-155 170,-149 176,-149"/>
<polyline fill="none" stroke="#6699ff" points="176,-149 316,-149 "/>
<path fill="none" stroke="#6699ff" d="M316,-149C322,-149 328,-155 328,-161"/>
<polyline fill="none" stroke="#6699ff" points="328,-161 328,-173 "/>
<path fill="none" stroke="#6699ff" d="M328,-173C328,-179 322,-185 316,-185"/>
<polyline fill="none" stroke="#6699ff" points="316,-185 176,-185 "/>
<path fill="none" stroke="#6699ff" d="M176,-185C170,-185 164,-179 164,-173"/>
<polyline fill="none" stroke="#6699ff" points="164,-173 164,-161 "/>
<path fill="none" stroke="#6699ff" d="M164,-161C164,-155 170,-149 176,-149"/>
<text text-anchor="middle" x="246" y="-162.9" font-family="Times Roman,serif" font-size="14.00">docbook + svg + png</text>
</g>
<!-- asciidoc&#45;&gt;docbook -->
<g id="edge4" class="edge"><title>asciidoc&#45;&gt;docbook</title>
<path fill="none" stroke="black" d="M180.506,-222.708C191.463,-213.388 204.946,-201.92 216.825,-191.816"/>
<polygon fill="black" stroke="black" points="219.392,-194.227 224.742,-185.082 214.857,-188.895 219.392,-194.227"/>
</g>
<!-- latex -->
<g id="node4" class="node"><title>latex</title>
<polygon fill="#ececff" stroke="#ececff" points="188,-75 304,-75 316,-87 316,-99 304,-111 188,-111 176,-99 176,-87 188,-75"/>
<path fill="#ececff" stroke="#ececff" d="M304,-75C310,-75 316,-81 316,-87"/>
<path fill="#ececff" stroke="#ececff" d="M316,-99C316,-105 310,-111 304,-111"/>
<path fill="#ececff" stroke="#ececff" d="M188,-111C182,-111 176,-105 176,-99"/>
<path fill="#ececff" stroke="#ececff" d="M176,-87C176,-81 182,-75 188,-75"/>
<polyline fill="none" stroke="#6699ff" points="188,-75 304,-75 "/>
<path fill="none" stroke="#6699ff" d="M304,-75C310,-75 316,-81 316,-87"/>
<polyline fill="none" stroke="#6699ff" points="316,-87 316,-99 "/>
<path fill="none" stroke="#6699ff" d="M316,-99C316,-105 310,-111 304,-111"/>
<polyline fill="none" stroke="#6699ff" points="304,-111 188,-111 "/>
<path fill="none" stroke="#6699ff" d="M188,-111C182,-111 176,-105 176,-99"/>
<polyline fill="none" stroke="#6699ff" points="176,-99 176,-87 "/>
<path fill="none" stroke="#6699ff" d="M176,-87C176,-81 182,-75 188,-75"/>
<text text-anchor="middle" x="246" y="-88.9" font-family="Times Roman,serif" font-size="14.00">latex + pdf + png</text>
</g>
<!-- docbook&#45;&gt;latex -->
<g id="edge6" class="edge"><title>docbook&#45;&gt;latex</title>
<path fill="none" stroke="black" d="M246,-148.708C246,-140.464 246,-130.538 246,-121.362"/>
<polygon fill="black" stroke="black" points="249.5,-121.082 246,-111.082 242.5,-121.082 249.5,-121.082"/>
</g>
<!-- pdf -->
<g id="node5" class="node"><title>pdf</title>
<polygon fill="#ececff" stroke="#ececff" points="231,-1 261,-1 273,-13 273,-25 261,-37 231,-37 219,-25 219,-13 231,-1"/>
<path fill="#ececff" stroke="#ececff" d="M261,-1C267,-1 273,-7 273,-13"/>
<path fill="#ececff" stroke="#ececff" d="M273,-25C273,-31 267,-37 261,-37"/>
<path fill="#ececff" stroke="#ececff" d="M231,-37C225,-37 219,-31 219,-25"/>
<path fill="#ececff" stroke="#ececff" d="M219,-13C219,-7 225,-1 231,-1"/>
<polyline fill="none" stroke="#6699ff" points="231,-1 261,-1 "/>
<path fill="none" stroke="#6699ff" d="M261,-1C267,-1 273,-7 273,-13"/>
<polyline fill="none" stroke="#6699ff" points="273,-13 273,-25 "/>
<path fill="none" stroke="#6699ff" d="M273,-25C273,-31 267,-37 261,-37"/>
<polyline fill="none" stroke="#6699ff" points="261,-37 231,-37 "/>
<path fill="none" stroke="#6699ff" d="M231,-37C225,-37 219,-31 219,-25"/>
<polyline fill="none" stroke="#6699ff" points="219,-25 219,-13 "/>
<path fill="none" stroke="#6699ff" d="M219,-13C219,-7 225,-1 231,-1"/>
<text text-anchor="middle" x="246" y="-14.9" font-family="Times Roman,serif" font-size="14.00">pdf</text>
</g>
<!-- latex&#45;&gt;pdf -->
<g id="edge7" class="edge"><title>latex&#45;&gt;pdf</title>
<path fill="none" stroke="black" d="M246,-74.7079C246,-66.4635 246,-56.5376 246,-47.3622"/>
<polygon fill="black" stroke="black" points="249.5,-47.0817 246,-37.0817 242.5,-47.0818 249.5,-47.0817"/>
</g>
</g>
</svg>
