<?xml version="1.0" encoding="UTF-8" standalone="no"?>
<!DOCTYPE svg PUBLIC "-//W3C//DTD SVG 1.1//EN"
 "http://www.w3.org/Graphics/SVG/1.1/DTD/svg11.dtd">
<!-- Generated by graphviz version 2.26.3 (20100126.1600)
 -->
<!-- Title: author Pages: 1 -->
<svg width="583pt" height="342pt"
 viewBox="0.00 0.00 583.24 342.00" xmlns="http://www.w3.org/2000/svg" xmlns:xlink="http://www.w3.org/1999/xlink">
<g id="graph1" class="graph" transform="scale(1 1) rotate(0) translate(4 338)">
<title>author</title>
<polygon fill="white" stroke="white" points="-4,5 -4,-338 580.24,-338 580.24,5 -4,5"/>
<!-- FFT -->
<g id="node1" class="node"><title>FFT</title>
<a xlink:href="http://identi.ca/themr0c" xlink:title="Fabrice Flore&#45;Thébault (@themr0c)">
<polygon fill="#ececff" stroke="#ececff" points="199.24,-297 431.24,-297 443.24,-309 443.24,-321 431.24,-333 199.24,-333 187.24,-321 187.24,-309 199.24,-297"/>
<path fill="#ececff" stroke="#ececff" d="M431.24,-297C437.24,-297 443.24,-303 443.24,-309"/>
<path fill="#ececff" stroke="#ececff" d="M443.24,-321C443.24,-327 437.24,-333 431.24,-333"/>
<path fill="#ececff" stroke="#ececff" d="M199.24,-333C193.24,-333 187.24,-327 187.24,-321"/>
<path fill="#ececff" stroke="#ececff" d="M187.24,-309C187.24,-303 193.24,-297 199.24,-297"/>
<polyline fill="none" stroke="#6699ff" points="199.24,-297 431.24,-297 "/>
<path fill="none" stroke="#6699ff" d="M431.24,-297C437.24,-297 443.24,-303 443.24,-309"/>
<polyline fill="none" stroke="#6699ff" points="443.24,-309 443.24,-321 "/>
<path fill="none" stroke="#6699ff" d="M443.24,-321C443.24,-327 437.24,-333 431.24,-333"/>
<polyline fill="none" stroke="#6699ff" points="431.24,-333 199.24,-333 "/>
<path fill="none" stroke="#6699ff" d="M199.24,-333C193.24,-333 187.24,-327 187.24,-321"/>
<polyline fill="none" stroke="#6699ff" points="187.24,-321 187.24,-309 "/>
<path fill="none" stroke="#6699ff" d="M187.24,-309C187.24,-303 193.24,-297 199.24,-297"/>
<text text-anchor="middle" x="315.24" y="-310.9" font-family="Times Roman,serif" font-size="14.00">Fabrice Flore&#45;Thébault (@themr0c)</text>
</a>
</g>
<!-- Doc -->
<g id="node2" class="node"><title>Doc</title>
<polygon fill="#ececff" stroke="#ececff" points="123.24,-223 329.24,-223 341.24,-235 341.24,-247 329.24,-259 123.24,-259 111.24,-247 111.24,-235 123.24,-223"/>
<path fill="#ececff" stroke="#ececff" d="M329.24,-223C335.24,-223 341.24,-229 341.24,-235"/>
<path fill="#ececff" stroke="#ececff" d="M341.24,-247C341.24,-253 335.24,-259 329.24,-259"/>
<path fill="#ececff" stroke="#ececff" d="M123.24,-259C117.24,-259 111.24,-253 111.24,-247"/>
<path fill="#ececff" stroke="#ececff" d="M111.24,-235C111.24,-229 117.24,-223 123.24,-223"/>
<polyline fill="none" stroke="#6699ff" points="123.24,-223 329.24,-223 "/>
<path fill="none" stroke="#6699ff" d="M329.24,-223C335.24,-223 341.24,-229 341.24,-235"/>
<polyline fill="none" stroke="#6699ff" points="341.24,-235 341.24,-247 "/>
<path fill="none" stroke="#6699ff" d="M341.24,-247C341.24,-253 335.24,-259 329.24,-259"/>
<polyline fill="none" stroke="#6699ff" points="329.24,-259 123.24,-259 "/>
<path fill="none" stroke="#6699ff" d="M123.24,-259C117.24,-259 111.24,-253 111.24,-247"/>
<polyline fill="none" stroke="#6699ff" points="111.24,-247 111.24,-235 "/>
<path fill="none" stroke="#6699ff" d="M111.24,-235C111.24,-229 117.24,-223 123.24,-223"/>
<text text-anchor="middle" x="226.24" y="-236.9" font-family="Times Roman,serif" font-size="14.00">Documentation, Processus, QA</text>
</g>
<!-- FFT&#45;&gt;Doc -->
<g id="edge3" class="edge"><title>FFT&#45;&gt;Doc</title>
<path fill="none" stroke="black" d="M293.24,-296.708C281.923,-287.299 267.972,-275.699 255.736,-265.525"/>
<polygon fill="black" stroke="black" points="257.914,-262.784 247.987,-259.082 253.439,-268.166 257.914,-262.784"/>
</g>
<!-- Libre -->
<g id="node3" class="node"><title>Libre</title>
<polygon fill="#ececff" stroke="#ececff" points="481.24,-223 563.24,-223 575.24,-235 575.24,-247 563.24,-259 481.24,-259 469.24,-247 469.24,-235 481.24,-223"/>
<path fill="#ececff" stroke="#ececff" d="M563.24,-223C569.24,-223 575.24,-229 575.24,-235"/>
<path fill="#ececff" stroke="#ececff" d="M575.24,-247C575.24,-253 569.24,-259 563.24,-259"/>
<path fill="#ececff" stroke="#ececff" d="M481.24,-259C475.24,-259 469.24,-253 469.24,-247"/>
<path fill="#ececff" stroke="#ececff" d="M469.24,-235C469.24,-229 475.24,-223 481.24,-223"/>
<polyline fill="none" stroke="#6699ff" points="481.24,-223 563.24,-223 "/>
<path fill="none" stroke="#6699ff" d="M563.24,-223C569.24,-223 575.24,-229 575.24,-235"/>
<polyline fill="none" stroke="#6699ff" points="575.24,-235 575.24,-247 "/>
<path fill="none" stroke="#6699ff" d="M575.24,-247C575.24,-253 569.24,-259 563.24,-259"/>
<polyline fill="none" stroke="#6699ff" points="563.24,-259 481.24,-259 "/>
<path fill="none" stroke="#6699ff" d="M481.24,-259C475.24,-259 469.24,-253 469.24,-247"/>
<polyline fill="none" stroke="#6699ff" points="469.24,-247 469.24,-235 "/>
<path fill="none" stroke="#6699ff" d="M469.24,-235C469.24,-229 475.24,-223 481.24,-223"/>
<text text-anchor="middle" x="522.24" y="-236.9" font-family="Times Roman,serif" font-size="14.00">Projets libres</text>
</g>
<!-- FFT&#45;&gt;Libre -->
<g id="edge4" class="edge"><title>FFT&#45;&gt;Libre</title>
<path fill="none" stroke="black" d="M365.613,-296.992C394.662,-286.608 431.37,-273.485 461.946,-262.554"/>
<polygon fill="black" stroke="black" points="463.403,-265.751 471.641,-259.089 461.046,-259.159 463.403,-265.751"/>
</g>
<!-- Consultant -->
<g id="node7" class="node"><title>Consultant</title>
<polygon fill="#ececff" stroke="#ececff" points="371.24,-223 439.24,-223 451.24,-235 451.24,-247 439.24,-259 371.24,-259 359.24,-247 359.24,-235 371.24,-223"/>
<path fill="#ececff" stroke="#ececff" d="M439.24,-223C445.24,-223 451.24,-229 451.24,-235"/>
<path fill="#ececff" stroke="#ececff" d="M451.24,-247C451.24,-253 445.24,-259 439.24,-259"/>
<path fill="#ececff" stroke="#ececff" d="M371.24,-259C365.24,-259 359.24,-253 359.24,-247"/>
<path fill="#ececff" stroke="#ececff" d="M359.24,-235C359.24,-229 365.24,-223 371.24,-223"/>
<polyline fill="none" stroke="#6699ff" points="371.24,-223 439.24,-223 "/>
<path fill="none" stroke="#6699ff" d="M439.24,-223C445.24,-223 451.24,-229 451.24,-235"/>
<polyline fill="none" stroke="#6699ff" points="451.24,-235 451.24,-247 "/>
<path fill="none" stroke="#6699ff" d="M451.24,-247C451.24,-253 445.24,-259 439.24,-259"/>
<polyline fill="none" stroke="#6699ff" points="439.24,-259 371.24,-259 "/>
<path fill="none" stroke="#6699ff" d="M371.24,-259C365.24,-259 359.24,-253 359.24,-247"/>
<polyline fill="none" stroke="#6699ff" points="359.24,-247 359.24,-235 "/>
<path fill="none" stroke="#6699ff" d="M359.24,-235C359.24,-229 365.24,-223 371.24,-223"/>
<text text-anchor="middle" x="405.24" y="-236.9" font-family="Times Roman,serif" font-size="14.00">Consultant</text>
</g>
<!-- FFT&#45;&gt;Consultant -->
<g id="edge5" class="edge"><title>FFT&#45;&gt;Consultant</title>
<path fill="none" stroke="black" d="M337.487,-296.708C348.931,-287.299 363.039,-275.699 375.413,-265.525"/>
<polygon fill="black" stroke="black" points="377.747,-268.136 383.249,-259.082 373.302,-262.729 377.747,-268.136"/>
</g>
<!-- Sysadmin -->
<g id="node8" class="node"><title>Sysadmin</title>
<polygon fill="#ececff" stroke="#ececff" points="22.74,-223 81.74,-223 93.74,-235 93.74,-247 81.74,-259 22.74,-259 10.74,-247 10.74,-235 22.74,-223"/>
<path fill="#ececff" stroke="#ececff" d="M81.74,-223C87.74,-223 93.74,-229 93.74,-235"/>
<path fill="#ececff" stroke="#ececff" d="M93.74,-247C93.74,-253 87.74,-259 81.74,-259"/>
<path fill="#ececff" stroke="#ececff" d="M22.74,-259C16.74,-259 10.74,-253 10.74,-247"/>
<path fill="#ececff" stroke="#ececff" d="M10.74,-235C10.74,-229 16.74,-223 22.74,-223"/>
<polyline fill="none" stroke="#6699ff" points="22.74,-223 81.74,-223 "/>
<path fill="none" stroke="#6699ff" d="M81.74,-223C87.74,-223 93.74,-229 93.74,-235"/>
<polyline fill="none" stroke="#6699ff" points="93.74,-235 93.74,-247 "/>
<path fill="none" stroke="#6699ff" d="M93.74,-247C93.74,-253 87.74,-259 81.74,-259"/>
<polyline fill="none" stroke="#6699ff" points="81.74,-259 22.74,-259 "/>
<path fill="none" stroke="#6699ff" d="M22.74,-259C16.74,-259 10.74,-253 10.74,-247"/>
<polyline fill="none" stroke="#6699ff" points="10.74,-247 10.74,-235 "/>
<path fill="none" stroke="#6699ff" d="M10.74,-235C10.74,-229 16.74,-223 22.74,-223"/>
<text text-anchor="middle" x="52.24" y="-236.9" font-family="Times Roman,serif" font-size="14.00">Sysadmin</text>
</g>
<!-- FFT&#45;&gt;Sysadmin -->
<g id="edge6" class="edge"><title>FFT&#45;&gt;Sysadmin</title>
<path fill="none" stroke="black" d="M237.004,-296.992C199.012,-287.731 152.596,-275.657 103.676,-260.321"/>
<polygon fill="black" stroke="black" points="104.451,-256.895 93.8606,-257.21 102.336,-263.568 104.451,-256.895"/>
</g>
<!-- CHJT -->
<g id="node4" class="node"><title>CHJT</title>
<polygon fill="#ececff" stroke="#ececff" points="19.74,-75 216.74,-75 228.74,-87 228.74,-99 216.74,-111 19.74,-111 7.74003,-99 7.74003,-87 19.74,-75"/>
<path fill="#ececff" stroke="#ececff" d="M216.74,-75C222.74,-75 228.74,-81 228.74,-87"/>
<path fill="#ececff" stroke="#ececff" d="M228.74,-99C228.74,-105 222.74,-111 216.74,-111"/>
<path fill="#ececff" stroke="#ececff" d="M19.74,-111C13.74,-111 7.74003,-105 7.74003,-99"/>
<path fill="#ececff" stroke="#ececff" d="M7.74003,-87C7.74003,-81 13.74,-75 19.74,-75"/>
<polyline fill="none" stroke="#6699ff" points="19.74,-75 216.74,-75 "/>
<path fill="none" stroke="#6699ff" d="M216.74,-75C222.74,-75 228.74,-81 228.74,-87"/>
<polyline fill="none" stroke="#6699ff" points="228.74,-87 228.74,-99 "/>
<path fill="none" stroke="#6699ff" d="M228.74,-99C228.74,-105 222.74,-111 216.74,-111"/>
<polyline fill="none" stroke="#6699ff" points="216.74,-111 19.74,-111 "/>
<path fill="none" stroke="#6699ff" d="M19.74,-111C13.74,-111 7.74003,-105 7.74003,-99"/>
<polyline fill="none" stroke="#6699ff" points="7.74003,-99 7.74003,-87 "/>
<path fill="none" stroke="#6699ff" d="M7.74003,-87C7.74003,-81 13.74,-75 19.74,-75"/>
<text text-anchor="middle" x="118.24" y="-88.9" font-family="Times Roman,serif" font-size="14.00">Centre hospitalier Jean Titeca</text>
</g>
<!-- Doc&#45;&gt;CHJT -->
<g id="edge22" class="edge"><title>Doc&#45;&gt;CHJT</title>
<path fill="none" stroke="black" d="M224.659,-222.97C222.129,-202.978 215.647,-170.577 199.24,-148 190.147,-135.487 177.283,-124.92 164.479,-116.497"/>
<polygon fill="black" stroke="black" points="166.009,-113.327 155.671,-111.011 162.308,-119.269 166.009,-113.327"/>
</g>
<!-- GLPI -->
<g id="node11" class="node"><title>GLPI</title>
<polygon fill="#ececff" stroke="#ececff" points="382.24,-149 412.24,-149 424.24,-161 424.24,-173 412.24,-185 382.24,-185 370.24,-173 370.24,-161 382.24,-149"/>
<path fill="#ececff" stroke="#ececff" d="M412.24,-149C418.24,-149 424.24,-155 424.24,-161"/>
<path fill="#ececff" stroke="#ececff" d="M424.24,-173C424.24,-179 418.24,-185 412.24,-185"/>
<path fill="#ececff" stroke="#ececff" d="M382.24,-185C376.24,-185 370.24,-179 370.24,-173"/>
<path fill="#ececff" stroke="#ececff" d="M370.24,-161C370.24,-155 376.24,-149 382.24,-149"/>
<polyline fill="none" stroke="#6699ff" points="382.24,-149 412.24,-149 "/>
<path fill="none" stroke="#6699ff" d="M412.24,-149C418.24,-149 424.24,-155 424.24,-161"/>
<polyline fill="none" stroke="#6699ff" points="424.24,-161 424.24,-173 "/>
<path fill="none" stroke="#6699ff" d="M424.24,-173C424.24,-179 418.24,-185 412.24,-185"/>
<polyline fill="none" stroke="#6699ff" points="412.24,-185 382.24,-185 "/>
<path fill="none" stroke="#6699ff" d="M382.24,-185C376.24,-185 370.24,-179 370.24,-173"/>
<polyline fill="none" stroke="#6699ff" points="370.24,-173 370.24,-161 "/>
<path fill="none" stroke="#6699ff" d="M370.24,-161C370.24,-155 376.24,-149 382.24,-149"/>
<text text-anchor="middle" x="397.24" y="-162.9" font-family="Times Roman,serif" font-size="14.00">GLPI</text>
</g>
<!-- Doc&#45;&gt;GLPI -->
<g id="edge23" class="edge"><title>Doc&#45;&gt;GLPI</title>
<path fill="none" stroke="black" d="M273.903,-222.911C297.732,-213.565 327.11,-201.589 360.378,-186.229"/>
<polygon fill="black" stroke="black" points="362.279,-189.204 369.863,-181.806 359.321,-182.86 362.279,-189.204"/>
</g>
<!-- Rudder -->
<g id="node12" class="node"><title>Rudder</title>
<polygon fill="#ececff" stroke="#ececff" points="307.74,-1 348.74,-1 360.74,-13 360.74,-25 348.74,-37 307.74,-37 295.74,-25 295.74,-13 307.74,-1"/>
<path fill="#ececff" stroke="#ececff" d="M348.74,-1C354.74,-1 360.74,-7 360.74,-13"/>
<path fill="#ececff" stroke="#ececff" d="M360.74,-25C360.74,-31 354.74,-37 348.74,-37"/>
<path fill="#ececff" stroke="#ececff" d="M307.74,-37C301.74,-37 295.74,-31 295.74,-25"/>
<path fill="#ececff" stroke="#ececff" d="M295.74,-13C295.74,-7 301.74,-1 307.74,-1"/>
<polyline fill="none" stroke="#6699ff" points="307.74,-1 348.74,-1 "/>
<path fill="none" stroke="#6699ff" d="M348.74,-1C354.74,-1 360.74,-7 360.74,-13"/>
<polyline fill="none" stroke="#6699ff" points="360.74,-13 360.74,-25 "/>
<path fill="none" stroke="#6699ff" d="M360.74,-25C360.74,-31 354.74,-37 348.74,-37"/>
<polyline fill="none" stroke="#6699ff" points="348.74,-37 307.74,-37 "/>
<path fill="none" stroke="#6699ff" d="M307.74,-37C301.74,-37 295.74,-31 295.74,-25"/>
<polyline fill="none" stroke="#6699ff" points="295.74,-25 295.74,-13 "/>
<path fill="none" stroke="#6699ff" d="M295.74,-13C295.74,-7 301.74,-1 307.74,-1"/>
<text text-anchor="middle" x="328.24" y="-14.9" font-family="Times Roman,serif" font-size="14.00">Rudder</text>
</g>
<!-- Doc&#45;&gt;Rudder -->
<g id="edge24" class="edge"><title>Doc&#45;&gt;Rudder</title>
<path fill="none" stroke="black" d="M228.659,-222.819C233.52,-190.874 246.561,-123.383 275.24,-74 281.472,-63.2685 290.231,-53.0329 298.836,-44.3649"/>
<polygon fill="black" stroke="black" points="301.521,-46.6382 306.291,-37.1779 296.662,-41.5986 301.521,-46.6382"/>
</g>
<!-- Centsix -->
<g id="node16" class="node"><title>Centsix</title>
<polygon fill="#ececff" stroke="#ececff" points="296.24,-149 340.24,-149 352.24,-161 352.24,-173 340.24,-185 296.24,-185 284.24,-173 284.24,-161 296.24,-149"/>
<path fill="#ececff" stroke="#ececff" d="M340.24,-149C346.24,-149 352.24,-155 352.24,-161"/>
<path fill="#ececff" stroke="#ececff" d="M352.24,-173C352.24,-179 346.24,-185 340.24,-185"/>
<path fill="#ececff" stroke="#ececff" d="M296.24,-185C290.24,-185 284.24,-179 284.24,-173"/>
<path fill="#ececff" stroke="#ececff" d="M284.24,-161C284.24,-155 290.24,-149 296.24,-149"/>
<polyline fill="none" stroke="#6699ff" points="296.24,-149 340.24,-149 "/>
<path fill="none" stroke="#6699ff" d="M340.24,-149C346.24,-149 352.24,-155 352.24,-161"/>
<polyline fill="none" stroke="#6699ff" points="352.24,-161 352.24,-173 "/>
<path fill="none" stroke="#6699ff" d="M352.24,-173C352.24,-179 346.24,-185 340.24,-185"/>
<polyline fill="none" stroke="#6699ff" points="340.24,-185 296.24,-185 "/>
<path fill="none" stroke="#6699ff" d="M296.24,-185C290.24,-185 284.24,-179 284.24,-173"/>
<polyline fill="none" stroke="#6699ff" points="284.24,-173 284.24,-161 "/>
<path fill="none" stroke="#6699ff" d="M284.24,-161C284.24,-155 290.24,-149 296.24,-149"/>
<text text-anchor="middle" x="318.24" y="-162.9" font-family="Times Roman,serif" font-size="14.00">Centsix</text>
</g>
<!-- Doc&#45;&gt;Centsix -->
<g id="edge25" class="edge"><title>Doc&#45;&gt;Centsix</title>
<path fill="none" stroke="black" d="M248.982,-222.708C260.68,-213.299 275.101,-201.699 287.75,-191.525"/>
<polygon fill="black" stroke="black" points="290.162,-194.077 295.76,-185.082 285.774,-188.622 290.162,-194.077"/>
</g>
<!-- Emakina -->
<g id="node22" class="node"><title>Emakina</title>
<polygon fill="#ececff" stroke="#ececff" points="26.24,-149 78.24,-149 90.24,-161 90.24,-173 78.24,-185 26.24,-185 14.24,-173 14.24,-161 26.24,-149"/>
<path fill="#ececff" stroke="#ececff" d="M78.24,-149C84.24,-149 90.24,-155 90.24,-161"/>
<path fill="#ececff" stroke="#ececff" d="M90.24,-173C90.24,-179 84.24,-185 78.24,-185"/>
<path fill="#ececff" stroke="#ececff" d="M26.24,-185C20.24,-185 14.24,-179 14.24,-173"/>
<path fill="#ececff" stroke="#ececff" d="M14.24,-161C14.24,-155 20.24,-149 26.24,-149"/>
<polyline fill="none" stroke="#6699ff" points="26.24,-149 78.24,-149 "/>
<path fill="none" stroke="#6699ff" d="M78.24,-149C84.24,-149 90.24,-155 90.24,-161"/>
<polyline fill="none" stroke="#6699ff" points="90.24,-161 90.24,-173 "/>
<path fill="none" stroke="#6699ff" d="M90.24,-173C90.24,-179 84.24,-185 78.24,-185"/>
<polyline fill="none" stroke="#6699ff" points="78.24,-185 26.24,-185 "/>
<path fill="none" stroke="#6699ff" d="M26.24,-185C20.24,-185 14.24,-179 14.24,-173"/>
<polyline fill="none" stroke="#6699ff" points="14.24,-173 14.24,-161 "/>
<path fill="none" stroke="#6699ff" d="M14.24,-161C14.24,-155 20.24,-149 26.24,-149"/>
<text text-anchor="middle" x="52.24" y="-162.9" font-family="Times Roman,serif" font-size="14.00">Emakina</text>
</g>
<!-- Doc&#45;&gt;Emakina -->
<g id="edge26" class="edge"><title>Doc&#45;&gt;Emakina</title>
<path fill="none" stroke="black" d="M183.675,-222.898C158.316,-212.113 126.073,-198.4 99.8687,-187.256"/>
<polygon fill="black" stroke="black" points="101.084,-183.969 90.5117,-183.276 98.3443,-190.411 101.084,-183.969"/>
</g>
<!-- Mediaxim -->
<g id="node23" class="node"><title>Mediaxim</title>
<polygon fill="#ececff" stroke="#ececff" points="120.24,-149 178.24,-149 190.24,-161 190.24,-173 178.24,-185 120.24,-185 108.24,-173 108.24,-161 120.24,-149"/>
<path fill="#ececff" stroke="#ececff" d="M178.24,-149C184.24,-149 190.24,-155 190.24,-161"/>
<path fill="#ececff" stroke="#ececff" d="M190.24,-173C190.24,-179 184.24,-185 178.24,-185"/>
<path fill="#ececff" stroke="#ececff" d="M120.24,-185C114.24,-185 108.24,-179 108.24,-173"/>
<path fill="#ececff" stroke="#ececff" d="M108.24,-161C108.24,-155 114.24,-149 120.24,-149"/>
<polyline fill="none" stroke="#6699ff" points="120.24,-149 178.24,-149 "/>
<path fill="none" stroke="#6699ff" d="M178.24,-149C184.24,-149 190.24,-155 190.24,-161"/>
<polyline fill="none" stroke="#6699ff" points="190.24,-161 190.24,-173 "/>
<path fill="none" stroke="#6699ff" d="M190.24,-173C190.24,-179 184.24,-185 178.24,-185"/>
<polyline fill="none" stroke="#6699ff" points="178.24,-185 120.24,-185 "/>
<path fill="none" stroke="#6699ff" d="M120.24,-185C114.24,-185 108.24,-179 108.24,-173"/>
<polyline fill="none" stroke="#6699ff" points="108.24,-173 108.24,-161 "/>
<path fill="none" stroke="#6699ff" d="M108.24,-161C108.24,-155 114.24,-149 120.24,-149"/>
<text text-anchor="middle" x="149.24" y="-162.9" font-family="Times Roman,serif" font-size="14.00">Mediaxim</text>
</g>
<!-- Doc&#45;&gt;Mediaxim -->
<g id="edge27" class="edge"><title>Doc&#45;&gt;Mediaxim</title>
<path fill="none" stroke="black" d="M207.206,-222.708C197.602,-213.478 185.805,-202.14 175.365,-192.107"/>
<polygon fill="black" stroke="black" points="177.69,-189.487 168.055,-185.082 172.84,-194.535 177.69,-189.487"/>
</g>
<!-- Libre&#45;&gt;GLPI -->
<g id="edge9" class="edge"><title>Libre&#45;&gt;GLPI</title>
<path fill="none" stroke="black" d="M491.662,-222.898C474.021,-212.455 451.744,-199.266 433.258,-188.323"/>
<polygon fill="black" stroke="black" points="434.913,-185.235 424.525,-183.152 431.347,-191.259 434.913,-185.235"/>
</g>
<!-- Libre&#45;&gt;Rudder -->
<g id="edge10" class="edge"><title>Libre&#45;&gt;Rudder</title>
<path fill="none" stroke="black" d="M533.609,-222.752C544.235,-203.146 556.615,-171.622 543.24,-148 506.445,-83.0129 422.406,-47.1933 370.971,-30.6342"/>
<polygon fill="black" stroke="black" points="371.731,-27.2052 361.143,-27.5763 369.652,-33.8892 371.731,-27.2052"/>
</g>
<!-- Esquimaux -->
<g id="node15" class="node"><title>Esquimaux</title>
<polygon fill="#ececff" stroke="#ececff" points="454.24,-149 522.24,-149 534.24,-161 534.24,-173 522.24,-185 454.24,-185 442.24,-173 442.24,-161 454.24,-149"/>
<path fill="#ececff" stroke="#ececff" d="M522.24,-149C528.24,-149 534.24,-155 534.24,-161"/>
<path fill="#ececff" stroke="#ececff" d="M534.24,-173C534.24,-179 528.24,-185 522.24,-185"/>
<path fill="#ececff" stroke="#ececff" d="M454.24,-185C448.24,-185 442.24,-179 442.24,-173"/>
<path fill="#ececff" stroke="#ececff" d="M442.24,-161C442.24,-155 448.24,-149 454.24,-149"/>
<polyline fill="none" stroke="#6699ff" points="454.24,-149 522.24,-149 "/>
<path fill="none" stroke="#6699ff" d="M522.24,-149C528.24,-149 534.24,-155 534.24,-161"/>
<polyline fill="none" stroke="#6699ff" points="534.24,-161 534.24,-173 "/>
<path fill="none" stroke="#6699ff" d="M534.24,-173C534.24,-179 528.24,-185 522.24,-185"/>
<polyline fill="none" stroke="#6699ff" points="522.24,-185 454.24,-185 "/>
<path fill="none" stroke="#6699ff" d="M454.24,-185C448.24,-185 442.24,-179 442.24,-173"/>
<polyline fill="none" stroke="#6699ff" points="442.24,-173 442.24,-161 "/>
<path fill="none" stroke="#6699ff" d="M442.24,-161C442.24,-155 448.24,-149 454.24,-149"/>
<text text-anchor="middle" x="488.24" y="-162.9" font-family="Times Roman,serif" font-size="14.00">Esquimaux</text>
</g>
<!-- Consultant&#45;&gt;Esquimaux -->
<g id="edge13" class="edge"><title>Consultant&#45;&gt;Esquimaux</title>
<path fill="none" stroke="black" d="M425.757,-222.708C436.21,-213.388 449.073,-201.92 460.406,-191.816"/>
<polygon fill="black" stroke="black" points="462.824,-194.349 467.959,-185.082 458.166,-189.124 462.824,-194.349"/>
</g>
<!-- Consultant&#45;&gt;Centsix -->
<g id="edge14" class="edge"><title>Consultant&#45;&gt;Centsix</title>
<path fill="none" stroke="black" d="M383.734,-222.708C372.778,-213.388 359.294,-201.92 347.415,-191.816"/>
<polygon fill="black" stroke="black" points="349.383,-188.895 339.498,-185.082 344.848,-194.227 349.383,-188.895"/>
</g>
<!-- Sysadmin&#45;&gt;CHJT -->
<g id="edge30" class="edge"><title>Sysadmin&#45;&gt;CHJT</title>
<path fill="none" stroke="black" d="M31.9478,-222.995C12.9336,-203.868 -10.3962,-173.001 5.24003,-148 13.9588,-134.06 27.3364,-123.561 41.8746,-115.685"/>
<polygon fill="black" stroke="black" points="43.6575,-118.707 51.0453,-111.113 40.5342,-112.442 43.6575,-118.707"/>
</g>
<!-- Sysadmin&#45;&gt;Emakina -->
<g id="edge31" class="edge"><title>Sysadmin&#45;&gt;Emakina</title>
<path fill="none" stroke="black" d="M52.24,-222.708C52.24,-214.464 52.24,-204.538 52.24,-195.362"/>
<polygon fill="black" stroke="black" points="55.7401,-195.082 52.24,-185.082 48.7401,-195.082 55.7401,-195.082"/>
</g>
<!-- Sysadmin&#45;&gt;Mediaxim -->
<g id="edge32" class="edge"><title>Sysadmin&#45;&gt;Mediaxim</title>
<path fill="none" stroke="black" d="M76.2176,-222.708C88.6688,-213.209 104.046,-201.478 117.474,-191.234"/>
<polygon fill="black" stroke="black" points="119.711,-193.93 125.538,-185.082 115.465,-188.364 119.711,-193.93"/>
</g>
<!-- Esquimaux&#45;&gt;CHJT -->
<g id="edge16" class="edge"><title>Esquimaux&#45;&gt;CHJT</title>
<path fill="none" stroke="black" d="M442.19,-150.494C439.176,-149.599 436.174,-148.758 433.24,-148 369.852,-131.629 298.021,-118.67 238.975,-109.453"/>
<polygon fill="black" stroke="black" points="239.277,-105.958 228.86,-107.891 238.209,-112.876 239.277,-105.958"/>
</g>
<!-- Normation -->
<g id="node19" class="node"><title>Normation</title>
<polygon fill="#ececff" stroke="#ececff" points="295.74,-75 360.74,-75 372.74,-87 372.74,-99 360.74,-111 295.74,-111 283.74,-99 283.74,-87 295.74,-75"/>
<path fill="#ececff" stroke="#ececff" d="M360.74,-75C366.74,-75 372.74,-81 372.74,-87"/>
<path fill="#ececff" stroke="#ececff" d="M372.74,-99C372.74,-105 366.74,-111 360.74,-111"/>
<path fill="#ececff" stroke="#ececff" d="M295.74,-111C289.74,-111 283.74,-105 283.74,-99"/>
<path fill="#ececff" stroke="#ececff" d="M283.74,-87C283.74,-81 289.74,-75 295.74,-75"/>
<polyline fill="none" stroke="#6699ff" points="295.74,-75 360.74,-75 "/>
<path fill="none" stroke="#6699ff" d="M360.74,-75C366.74,-75 372.74,-81 372.74,-87"/>
<polyline fill="none" stroke="#6699ff" points="372.74,-87 372.74,-99 "/>
<path fill="none" stroke="#6699ff" d="M372.74,-99C372.74,-105 366.74,-111 360.74,-111"/>
<polyline fill="none" stroke="#6699ff" points="360.74,-111 295.74,-111 "/>
<path fill="none" stroke="#6699ff" d="M295.74,-111C289.74,-111 283.74,-105 283.74,-99"/>
<polyline fill="none" stroke="#6699ff" points="283.74,-99 283.74,-87 "/>
<path fill="none" stroke="#6699ff" d="M283.74,-87C283.74,-81 289.74,-75 295.74,-75"/>
<text text-anchor="middle" x="328.24" y="-88.9" font-family="Times Roman,serif" font-size="14.00">Normation</text>
</g>
<!-- Centsix&#45;&gt;Normation -->
<g id="edge18" class="edge"><title>Centsix&#45;&gt;Normation</title>
<path fill="none" stroke="black" d="M320.712,-148.708C321.838,-140.374 323.197,-130.322 324.448,-121.063"/>
<polygon fill="black" stroke="black" points="327.926,-121.46 325.797,-111.082 320.989,-120.523 327.926,-121.46"/>
</g>
<!-- Normation&#45;&gt;Rudder -->
<g id="edge19" class="edge"><title>Normation&#45;&gt;Rudder</title>
<path fill="none" stroke="black" d="M328.24,-74.7079C328.24,-66.4635 328.24,-56.5376 328.24,-47.3622"/>
<polygon fill="black" stroke="black" points="331.74,-47.0817 328.24,-37.0817 324.74,-47.0818 331.74,-47.0817"/>
</g>
</g>
</svg>
