<?xml version="1.0" encoding="UTF-8" standalone="no"?>
<!DOCTYPE svg PUBLIC "-//W3C//DTD SVG 1.1//EN"
 "http://www.w3.org/Graphics/SVG/1.1/DTD/svg11.dtd">
<!-- Generated by graphviz version 2.26.3 (20100126.1600)
 -->
<!-- Title: workflow Pages: 1 -->
<svg width="254pt" height="194pt"
 viewBox="0.00 0.00 254.00 194.00" xmlns="http://www.w3.org/2000/svg" xmlns:xlink="http://www.w3.org/1999/xlink">
<g id="graph1" class="graph" transform="scale(1 1) rotate(0) translate(4 190)">
<title>workflow</title>
<polygon fill="white" stroke="white" points="-4,5 -4,-190 251,-190 251,5 -4,5"/>
<!-- FormatP -->
<g id="node1" class="node"><title>FormatP</title>
<polygon fill="#ececff" stroke="#ececff" points="36.5,-149 185.5,-149 197.5,-161 197.5,-173 185.5,-185 36.5,-185 24.5,-173 24.5,-161 36.5,-149"/>
<path fill="#ececff" stroke="#ececff" d="M185.5,-149C191.5,-149 197.5,-155 197.5,-161"/>
<path fill="#ececff" stroke="#ececff" d="M197.5,-173C197.5,-179 191.5,-185 185.5,-185"/>
<path fill="#ececff" stroke="#ececff" d="M36.5,-185C30.5,-185 24.5,-179 24.5,-173"/>
<path fill="#ececff" stroke="#ececff" d="M24.5,-161C24.5,-155 30.5,-149 36.5,-149"/>
<polyline fill="none" stroke="#6699ff" points="36.5,-149 185.5,-149 "/>
<path fill="none" stroke="#6699ff" d="M185.5,-149C191.5,-149 197.5,-155 197.5,-161"/>
<polyline fill="none" stroke="#6699ff" points="197.5,-161 197.5,-173 "/>
<path fill="none" stroke="#6699ff" d="M197.5,-173C197.5,-179 191.5,-185 185.5,-185"/>
<polyline fill="none" stroke="#6699ff" points="185.5,-185 36.5,-185 "/>
<path fill="none" stroke="#6699ff" d="M36.5,-185C30.5,-185 24.5,-179 24.5,-173"/>
<polyline fill="none" stroke="#6699ff" points="24.5,-173 24.5,-161 "/>
<path fill="none" stroke="#6699ff" d="M24.5,-161C24.5,-155 30.5,-149 36.5,-149"/>
<text text-anchor="middle" x="111" y="-162.9" font-family="Times Roman,serif" font-size="14.00">Formats de publication</text>
</g>
<!-- Web -->
<g id="node4" class="node"><title>Web</title>
<polygon fill="#ececff" stroke="#ececff" points="20,-75 50,-75 62,-87 62,-99 50,-111 20,-111 8,-99 8,-87 20,-75"/>
<path fill="#ececff" stroke="#ececff" d="M50,-75C56,-75 62,-81 62,-87"/>
<path fill="#ececff" stroke="#ececff" d="M62,-99C62,-105 56,-111 50,-111"/>
<path fill="#ececff" stroke="#ececff" d="M20,-111C14,-111 8,-105 8,-99"/>
<path fill="#ececff" stroke="#ececff" d="M8,-87C8,-81 14,-75 20,-75"/>
<polyline fill="none" stroke="#6699ff" points="20,-75 50,-75 "/>
<path fill="none" stroke="#6699ff" d="M50,-75C56,-75 62,-81 62,-87"/>
<polyline fill="none" stroke="#6699ff" points="62,-87 62,-99 "/>
<path fill="none" stroke="#6699ff" d="M62,-99C62,-105 56,-111 50,-111"/>
<polyline fill="none" stroke="#6699ff" points="50,-111 20,-111 "/>
<path fill="none" stroke="#6699ff" d="M20,-111C14,-111 8,-105 8,-99"/>
<polyline fill="none" stroke="#6699ff" points="8,-99 8,-87 "/>
<path fill="none" stroke="#6699ff" d="M8,-87C8,-81 14,-75 20,-75"/>
<text text-anchor="middle" x="35" y="-88.9" font-family="Times Roman,serif" font-size="14.00">Web</text>
</g>
<!-- FormatP&#45;&gt;Web -->
<g id="edge3" class="edge"><title>FormatP&#45;&gt;Web</title>
<path fill="none" stroke="black" d="M92.2135,-148.708C82.734,-139.478 71.0897,-128.14 60.786,-118.107"/>
<polygon fill="black" stroke="black" points="63.1768,-115.55 53.5704,-111.082 58.2935,-120.566 63.1768,-115.55"/>
</g>
<!-- Papier -->
<g id="node5" class="node"><title>Papier</title>
<polygon fill="#ececff" stroke="#ececff" points="93.5,-75 128.5,-75 140.5,-87 140.5,-99 128.5,-111 93.5,-111 81.5,-99 81.5,-87 93.5,-75"/>
<path fill="#ececff" stroke="#ececff" d="M128.5,-75C134.5,-75 140.5,-81 140.5,-87"/>
<path fill="#ececff" stroke="#ececff" d="M140.5,-99C140.5,-105 134.5,-111 128.5,-111"/>
<path fill="#ececff" stroke="#ececff" d="M93.5,-111C87.5,-111 81.5,-105 81.5,-99"/>
<path fill="#ececff" stroke="#ececff" d="M81.5,-87C81.5,-81 87.5,-75 93.5,-75"/>
<polyline fill="none" stroke="#6699ff" points="93.5,-75 128.5,-75 "/>
<path fill="none" stroke="#6699ff" d="M128.5,-75C134.5,-75 140.5,-81 140.5,-87"/>
<polyline fill="none" stroke="#6699ff" points="140.5,-87 140.5,-99 "/>
<path fill="none" stroke="#6699ff" d="M140.5,-99C140.5,-105 134.5,-111 128.5,-111"/>
<polyline fill="none" stroke="#6699ff" points="128.5,-111 93.5,-111 "/>
<path fill="none" stroke="#6699ff" d="M93.5,-111C87.5,-111 81.5,-105 81.5,-99"/>
<polyline fill="none" stroke="#6699ff" points="81.5,-99 81.5,-87 "/>
<path fill="none" stroke="#6699ff" d="M81.5,-87C81.5,-81 87.5,-75 93.5,-75"/>
<text text-anchor="middle" x="111" y="-88.9" font-family="Times Roman,serif" font-size="14.00">Papier</text>
</g>
<!-- FormatP&#45;&gt;Papier -->
<g id="edge4" class="edge"><title>FormatP&#45;&gt;Papier</title>
<path fill="none" stroke="black" d="M111,-148.708C111,-140.464 111,-130.538 111,-121.362"/>
<polygon fill="black" stroke="black" points="114.5,-121.082 111,-111.082 107.5,-121.082 114.5,-121.082"/>
</g>
<!-- Console -->
<g id="node6" class="node"><title>Console</title>
<polygon fill="#ececff" stroke="#ececff" points="173.5,-75 220.5,-75 232.5,-87 232.5,-99 220.5,-111 173.5,-111 161.5,-99 161.5,-87 173.5,-75"/>
<path fill="#ececff" stroke="#ececff" d="M220.5,-75C226.5,-75 232.5,-81 232.5,-87"/>
<path fill="#ececff" stroke="#ececff" d="M232.5,-99C232.5,-105 226.5,-111 220.5,-111"/>
<path fill="#ececff" stroke="#ececff" d="M173.5,-111C167.5,-111 161.5,-105 161.5,-99"/>
<path fill="#ececff" stroke="#ececff" d="M161.5,-87C161.5,-81 167.5,-75 173.5,-75"/>
<polyline fill="none" stroke="#6699ff" points="173.5,-75 220.5,-75 "/>
<path fill="none" stroke="#6699ff" d="M220.5,-75C226.5,-75 232.5,-81 232.5,-87"/>
<polyline fill="none" stroke="#6699ff" points="232.5,-87 232.5,-99 "/>
<path fill="none" stroke="#6699ff" d="M232.5,-99C232.5,-105 226.5,-111 220.5,-111"/>
<polyline fill="none" stroke="#6699ff" points="220.5,-111 173.5,-111 "/>
<path fill="none" stroke="#6699ff" d="M173.5,-111C167.5,-111 161.5,-105 161.5,-99"/>
<polyline fill="none" stroke="#6699ff" points="161.5,-99 161.5,-87 "/>
<path fill="none" stroke="#6699ff" d="M161.5,-87C161.5,-81 167.5,-75 173.5,-75"/>
<text text-anchor="middle" x="197" y="-88.9" font-family="Times Roman,serif" font-size="14.00">Console</text>
</g>
<!-- FormatP&#45;&gt;Console -->
<g id="edge5" class="edge"><title>FormatP&#45;&gt;Console</title>
<path fill="none" stroke="black" d="M132.258,-148.708C143.089,-139.388 156.418,-127.92 168.16,-117.816"/>
<polygon fill="black" stroke="black" points="170.689,-120.257 175.986,-111.082 166.123,-114.951 170.689,-120.257"/>
</g>
<!-- XHTML -->
<g id="node8" class="node"><title>XHTML</title>
<polygon fill="#ececff" stroke="#ececff" points="11.5,-1 54.5,-1 66.5,-13 66.5,-25 54.5,-37 11.5,-37 -0.5,-25 -0.5,-13 11.5,-1"/>
<path fill="#ececff" stroke="#ececff" d="M54.5,-1C60.5,-1 66.5,-7 66.5,-13"/>
<path fill="#ececff" stroke="#ececff" d="M66.5,-25C66.5,-31 60.5,-37 54.5,-37"/>
<path fill="#ececff" stroke="#ececff" d="M11.5,-37C5.5,-37 -0.5,-31 -0.5,-25"/>
<path fill="#ececff" stroke="#ececff" d="M-0.5,-13C-0.5,-7 5.5,-1 11.5,-1"/>
<polyline fill="none" stroke="#6699ff" points="11.5,-1 54.5,-1 "/>
<path fill="none" stroke="#6699ff" d="M54.5,-1C60.5,-1 66.5,-7 66.5,-13"/>
<polyline fill="none" stroke="#6699ff" points="66.5,-13 66.5,-25 "/>
<path fill="none" stroke="#6699ff" d="M66.5,-25C66.5,-31 60.5,-37 54.5,-37"/>
<polyline fill="none" stroke="#6699ff" points="54.5,-37 11.5,-37 "/>
<path fill="none" stroke="#6699ff" d="M11.5,-37C5.5,-37 -0.5,-31 -0.5,-25"/>
<polyline fill="none" stroke="#6699ff" points="-0.5,-25 -0.5,-13 "/>
<path fill="none" stroke="#6699ff" d="M-0.5,-13C-0.5,-7 5.5,-1 11.5,-1"/>
<text text-anchor="middle" x="33" y="-14.9" font-family="Times Roman,serif" font-size="14.00">XHTML</text>
</g>
<!-- Web&#45;&gt;XHTML -->
<g id="edge7" class="edge"><title>Web&#45;&gt;XHTML</title>
<path fill="none" stroke="black" d="M34.5056,-74.7079C34.2828,-66.4635 34.0145,-56.5376 33.7665,-47.3622"/>
<polygon fill="black" stroke="black" points="37.2577,-46.9835 33.4887,-37.0817 30.2602,-47.1727 37.2577,-46.9835"/>
</g>
<!-- PDF -->
<g id="node10" class="node"><title>PDF</title>
<polygon fill="#ececff" stroke="#ececff" points="96,-1 126,-1 138,-13 138,-25 126,-37 96,-37 84,-25 84,-13 96,-1"/>
<path fill="#ececff" stroke="#ececff" d="M126,-1C132,-1 138,-7 138,-13"/>
<path fill="#ececff" stroke="#ececff" d="M138,-25C138,-31 132,-37 126,-37"/>
<path fill="#ececff" stroke="#ececff" d="M96,-37C90,-37 84,-31 84,-25"/>
<path fill="#ececff" stroke="#ececff" d="M84,-13C84,-7 90,-1 96,-1"/>
<polyline fill="none" stroke="#6699ff" points="96,-1 126,-1 "/>
<path fill="none" stroke="#6699ff" d="M126,-1C132,-1 138,-7 138,-13"/>
<polyline fill="none" stroke="#6699ff" points="138,-13 138,-25 "/>
<path fill="none" stroke="#6699ff" d="M138,-25C138,-31 132,-37 126,-37"/>
<polyline fill="none" stroke="#6699ff" points="126,-37 96,-37 "/>
<path fill="none" stroke="#6699ff" d="M96,-37C90,-37 84,-31 84,-25"/>
<polyline fill="none" stroke="#6699ff" points="84,-25 84,-13 "/>
<path fill="none" stroke="#6699ff" d="M84,-13C84,-7 90,-1 96,-1"/>
<text text-anchor="middle" x="111" y="-14.9" font-family="Times Roman,serif" font-size="14.00">PDF</text>
</g>
<!-- Papier&#45;&gt;PDF -->
<g id="edge9" class="edge"><title>Papier&#45;&gt;PDF</title>
<path fill="none" stroke="black" d="M111,-74.7079C111,-66.4635 111,-56.5376 111,-47.3622"/>
<polygon fill="black" stroke="black" points="114.5,-47.0817 111,-37.0817 107.5,-47.0818 114.5,-47.0817"/>
</g>
<!-- Man pages -->
<g id="node12" class="node"><title>Man pages</title>
<polygon fill="#ececff" stroke="#ececff" points="168,-1 234,-1 246,-13 246,-25 234,-37 168,-37 156,-25 156,-13 168,-1"/>
<path fill="#ececff" stroke="#ececff" d="M234,-1C240,-1 246,-7 246,-13"/>
<path fill="#ececff" stroke="#ececff" d="M246,-25C246,-31 240,-37 234,-37"/>
<path fill="#ececff" stroke="#ececff" d="M168,-37C162,-37 156,-31 156,-25"/>
<path fill="#ececff" stroke="#ececff" d="M156,-13C156,-7 162,-1 168,-1"/>
<polyline fill="none" stroke="#6699ff" points="168,-1 234,-1 "/>
<path fill="none" stroke="#6699ff" d="M234,-1C240,-1 246,-7 246,-13"/>
<polyline fill="none" stroke="#6699ff" points="246,-13 246,-25 "/>
<path fill="none" stroke="#6699ff" d="M246,-25C246,-31 240,-37 234,-37"/>
<polyline fill="none" stroke="#6699ff" points="234,-37 168,-37 "/>
<path fill="none" stroke="#6699ff" d="M168,-37C162,-37 156,-31 156,-25"/>
<polyline fill="none" stroke="#6699ff" points="156,-25 156,-13 "/>
<path fill="none" stroke="#6699ff" d="M156,-13C156,-7 162,-1 168,-1"/>
<text text-anchor="middle" x="201" y="-14.9" font-family="Times Roman,serif" font-size="14.00">Man pages</text>
</g>
<!-- Console&#45;&gt;Man pages -->
<g id="edge11" class="edge"><title>Console&#45;&gt;Man pages</title>
<path fill="none" stroke="black" d="M197.989,-74.7079C198.434,-66.4635 198.971,-56.5376 199.467,-47.3622"/>
<polygon fill="black" stroke="black" points="202.978,-47.2561 200.023,-37.0817 195.988,-46.8782 202.978,-47.2561"/>
</g>
</g>
</svg>
