<?xml version="1.0" encoding="UTF-8" standalone="no"?>
<!DOCTYPE svg PUBLIC "-//W3C//DTD SVG 1.1//EN"
 "http://www.w3.org/Graphics/SVG/1.1/DTD/svg11.dtd">
<!-- Generated by graphviz version 2.26.3 (20100126.1600)
 -->
<!-- Title: workflow Pages: 1 -->
<svg width="333pt" height="268pt"
 viewBox="0.00 0.00 333.00 268.00" xmlns="http://www.w3.org/2000/svg" xmlns:xlink="http://www.w3.org/1999/xlink">
<g id="graph1" class="graph" transform="scale(1 1) rotate(0) translate(4 264)">
<title>workflow</title>
<polygon fill="white" stroke="white" points="-4,5 -4,-264 330,-264 330,5 -4,5"/>
<!-- FormatE -->
<g id="node1" class="node"><title>FormatE</title>
<polygon fill="#ececff" stroke="#ececff" points="100.5,-223 211.5,-223 223.5,-235 223.5,-247 211.5,-259 100.5,-259 88.5,-247 88.5,-235 100.5,-223"/>
<path fill="#ececff" stroke="#ececff" d="M211.5,-223C217.5,-223 223.5,-229 223.5,-235"/>
<path fill="#ececff" stroke="#ececff" d="M223.5,-247C223.5,-253 217.5,-259 211.5,-259"/>
<path fill="#ececff" stroke="#ececff" d="M100.5,-259C94.5,-259 88.5,-253 88.5,-247"/>
<path fill="#ececff" stroke="#ececff" d="M88.5,-235C88.5,-229 94.5,-223 100.5,-223"/>
<polyline fill="none" stroke="#6699ff" points="100.5,-223 211.5,-223 "/>
<path fill="none" stroke="#6699ff" d="M211.5,-223C217.5,-223 223.5,-229 223.5,-235"/>
<polyline fill="none" stroke="#6699ff" points="223.5,-235 223.5,-247 "/>
<path fill="none" stroke="#6699ff" d="M223.5,-247C223.5,-253 217.5,-259 211.5,-259"/>
<polyline fill="none" stroke="#6699ff" points="211.5,-259 100.5,-259 "/>
<path fill="none" stroke="#6699ff" d="M100.5,-259C94.5,-259 88.5,-253 88.5,-247"/>
<polyline fill="none" stroke="#6699ff" points="88.5,-247 88.5,-235 "/>
<path fill="none" stroke="#6699ff" d="M88.5,-235C88.5,-229 94.5,-223 100.5,-223"/>
<text text-anchor="middle" x="156" y="-236.9" font-family="Times Roman,serif" font-size="14.00">Format d&#39;écriture</text>
</g>
<!-- OutilsE -->
<g id="node2" class="node"><title>OutilsE</title>
<polygon fill="#ececff" stroke="#ececff" points="26,-149 122,-149 134,-161 134,-173 122,-185 26,-185 14,-173 14,-161 26,-149"/>
<path fill="#ececff" stroke="#ececff" d="M122,-149C128,-149 134,-155 134,-161"/>
<path fill="#ececff" stroke="#ececff" d="M134,-173C134,-179 128,-185 122,-185"/>
<path fill="#ececff" stroke="#ececff" d="M26,-185C20,-185 14,-179 14,-173"/>
<path fill="#ececff" stroke="#ececff" d="M14,-161C14,-155 20,-149 26,-149"/>
<polyline fill="none" stroke="#6699ff" points="26,-149 122,-149 "/>
<path fill="none" stroke="#6699ff" d="M122,-149C128,-149 134,-155 134,-161"/>
<polyline fill="none" stroke="#6699ff" points="134,-161 134,-173 "/>
<path fill="none" stroke="#6699ff" d="M134,-173C134,-179 128,-185 122,-185"/>
<polyline fill="none" stroke="#6699ff" points="122,-185 26,-185 "/>
<path fill="none" stroke="#6699ff" d="M26,-185C20,-185 14,-179 14,-173"/>
<polyline fill="none" stroke="#6699ff" points="14,-173 14,-161 "/>
<path fill="none" stroke="#6699ff" d="M14,-161C14,-155 20,-149 26,-149"/>
<text text-anchor="middle" x="74" y="-162.9" font-family="Times Roman,serif" font-size="14.00">Outils d&#39;édition</text>
</g>
<!-- FormatE&#45;&gt;OutilsE -->
<g id="edge2" class="edge"><title>FormatE&#45;&gt;OutilsE</title>
<path fill="none" stroke="black" d="M135.73,-222.708C125.403,-213.388 112.695,-201.92 101.498,-191.816"/>
<polygon fill="black" stroke="black" points="103.805,-189.183 94.0365,-185.082 99.1156,-194.38 103.805,-189.183"/>
</g>
<!-- FormatP -->
<g id="node4" class="node"><title>FormatP</title>
<polygon fill="#ececff" stroke="#ececff" points="164.5,-149 313.5,-149 325.5,-161 325.5,-173 313.5,-185 164.5,-185 152.5,-173 152.5,-161 164.5,-149"/>
<path fill="#ececff" stroke="#ececff" d="M313.5,-149C319.5,-149 325.5,-155 325.5,-161"/>
<path fill="#ececff" stroke="#ececff" d="M325.5,-173C325.5,-179 319.5,-185 313.5,-185"/>
<path fill="#ececff" stroke="#ececff" d="M164.5,-185C158.5,-185 152.5,-179 152.5,-173"/>
<path fill="#ececff" stroke="#ececff" d="M152.5,-161C152.5,-155 158.5,-149 164.5,-149"/>
<polyline fill="none" stroke="#6699ff" points="164.5,-149 313.5,-149 "/>
<path fill="none" stroke="#6699ff" d="M313.5,-149C319.5,-149 325.5,-155 325.5,-161"/>
<polyline fill="none" stroke="#6699ff" points="325.5,-161 325.5,-173 "/>
<path fill="none" stroke="#6699ff" d="M325.5,-173C325.5,-179 319.5,-185 313.5,-185"/>
<polyline fill="none" stroke="#6699ff" points="313.5,-185 164.5,-185 "/>
<path fill="none" stroke="#6699ff" d="M164.5,-185C158.5,-185 152.5,-179 152.5,-173"/>
<polyline fill="none" stroke="#6699ff" points="152.5,-173 152.5,-161 "/>
<path fill="none" stroke="#6699ff" d="M152.5,-161C152.5,-155 158.5,-149 164.5,-149"/>
<text text-anchor="middle" x="239" y="-162.9" font-family="Times Roman,serif" font-size="14.00">Formats de publication</text>
</g>
<!-- FormatE&#45;&gt;FormatP -->
<g id="edge5" class="edge"><title>FormatE&#45;&gt;FormatP</title>
<path fill="none" stroke="black" d="M176.517,-222.708C186.97,-213.388 199.833,-201.92 211.166,-191.816"/>
<polygon fill="black" stroke="black" points="213.584,-194.349 218.719,-185.082 208.926,-189.124 213.584,-194.349"/>
</g>
<!-- FlowE -->
<g id="node3" class="node"><title>FlowE</title>
<polygon fill="#ececff" stroke="#ececff" points="11.5,-75 132.5,-75 144.5,-87 144.5,-99 132.5,-111 11.5,-111 -0.5,-99 -0.5,-87 11.5,-75"/>
<path fill="#ececff" stroke="#ececff" d="M132.5,-75C138.5,-75 144.5,-81 144.5,-87"/>
<path fill="#ececff" stroke="#ececff" d="M144.5,-99C144.5,-105 138.5,-111 132.5,-111"/>
<path fill="#ececff" stroke="#ececff" d="M11.5,-111C5.5,-111 -0.5,-105 -0.5,-99"/>
<path fill="#ececff" stroke="#ececff" d="M-0.5,-87C-0.5,-81 5.5,-75 11.5,-75"/>
<polyline fill="none" stroke="#6699ff" points="11.5,-75 132.5,-75 "/>
<path fill="none" stroke="#6699ff" d="M132.5,-75C138.5,-75 144.5,-81 144.5,-87"/>
<polyline fill="none" stroke="#6699ff" points="144.5,-87 144.5,-99 "/>
<path fill="none" stroke="#6699ff" d="M144.5,-99C144.5,-105 138.5,-111 132.5,-111"/>
<polyline fill="none" stroke="#6699ff" points="132.5,-111 11.5,-111 "/>
<path fill="none" stroke="#6699ff" d="M11.5,-111C5.5,-111 -0.5,-105 -0.5,-99"/>
<polyline fill="none" stroke="#6699ff" points="-0.5,-99 -0.5,-87 "/>
<path fill="none" stroke="#6699ff" d="M-0.5,-87C-0.5,-81 5.5,-75 11.5,-75"/>
<text text-anchor="middle" x="72" y="-88.9" font-family="Times Roman,serif" font-size="14.00">Flux de production</text>
</g>
<!-- OutilsE&#45;&gt;FlowE -->
<g id="edge3" class="edge"><title>OutilsE&#45;&gt;FlowE</title>
<path fill="none" stroke="black" d="M73.5056,-148.708C73.2828,-140.464 73.0145,-130.538 72.7665,-121.362"/>
<polygon fill="black" stroke="black" points="76.2577,-120.983 72.4887,-111.082 69.2602,-121.173 76.2577,-120.983"/>
</g>
<!-- OutilsP -->
<g id="node5" class="node"><title>OutilsP</title>
<polygon fill="#ececff" stroke="#ececff" points="174,-75 308,-75 320,-87 320,-99 308,-111 174,-111 162,-99 162,-87 174,-75"/>
<path fill="#ececff" stroke="#ececff" d="M308,-75C314,-75 320,-81 320,-87"/>
<path fill="#ececff" stroke="#ececff" d="M320,-99C320,-105 314,-111 308,-111"/>
<path fill="#ececff" stroke="#ececff" d="M174,-111C168,-111 162,-105 162,-99"/>
<path fill="#ececff" stroke="#ececff" d="M162,-87C162,-81 168,-75 174,-75"/>
<polyline fill="none" stroke="#6699ff" points="174,-75 308,-75 "/>
<path fill="none" stroke="#6699ff" d="M308,-75C314,-75 320,-81 320,-87"/>
<polyline fill="none" stroke="#6699ff" points="320,-87 320,-99 "/>
<path fill="none" stroke="#6699ff" d="M320,-99C320,-105 314,-111 308,-111"/>
<polyline fill="none" stroke="#6699ff" points="308,-111 174,-111 "/>
<path fill="none" stroke="#6699ff" d="M174,-111C168,-111 162,-105 162,-99"/>
<polyline fill="none" stroke="#6699ff" points="162,-99 162,-87 "/>
<path fill="none" stroke="#6699ff" d="M162,-87C162,-81 168,-75 174,-75"/>
<text text-anchor="middle" x="241" y="-88.9" font-family="Times Roman,serif" font-size="14.00">Outils de publication</text>
</g>
<!-- FormatP&#45;&gt;OutilsP -->
<g id="edge6" class="edge"><title>FormatP&#45;&gt;OutilsP</title>
<path fill="none" stroke="black" d="M239.494,-148.708C239.717,-140.464 239.985,-130.538 240.233,-121.362"/>
<polygon fill="black" stroke="black" points="243.74,-121.173 240.511,-111.082 236.742,-120.983 243.74,-121.173"/>
</g>
<!-- FlowP -->
<g id="node6" class="node"><title>FlowP</title>
<polygon fill="#ececff" stroke="#ececff" points="170.5,-1 311.5,-1 323.5,-13 323.5,-25 311.5,-37 170.5,-37 158.5,-25 158.5,-13 170.5,-1"/>
<path fill="#ececff" stroke="#ececff" d="M311.5,-1C317.5,-1 323.5,-7 323.5,-13"/>
<path fill="#ececff" stroke="#ececff" d="M323.5,-25C323.5,-31 317.5,-37 311.5,-37"/>
<path fill="#ececff" stroke="#ececff" d="M170.5,-37C164.5,-37 158.5,-31 158.5,-25"/>
<path fill="#ececff" stroke="#ececff" d="M158.5,-13C158.5,-7 164.5,-1 170.5,-1"/>
<polyline fill="none" stroke="#6699ff" points="170.5,-1 311.5,-1 "/>
<path fill="none" stroke="#6699ff" d="M311.5,-1C317.5,-1 323.5,-7 323.5,-13"/>
<polyline fill="none" stroke="#6699ff" points="323.5,-13 323.5,-25 "/>
<path fill="none" stroke="#6699ff" d="M323.5,-25C323.5,-31 317.5,-37 311.5,-37"/>
<polyline fill="none" stroke="#6699ff" points="311.5,-37 170.5,-37 "/>
<path fill="none" stroke="#6699ff" d="M170.5,-37C164.5,-37 158.5,-31 158.5,-25"/>
<polyline fill="none" stroke="#6699ff" points="158.5,-25 158.5,-13 "/>
<path fill="none" stroke="#6699ff" d="M158.5,-13C158.5,-7 164.5,-1 170.5,-1"/>
<text text-anchor="middle" x="241" y="-14.9" font-family="Times Roman,serif" font-size="14.00">Chaîne de publication</text>
</g>
<!-- OutilsP&#45;&gt;FlowP -->
<g id="edge7" class="edge"><title>OutilsP&#45;&gt;FlowP</title>
<path fill="none" stroke="black" d="M241,-74.7079C241,-66.4635 241,-56.5376 241,-47.3622"/>
<polygon fill="black" stroke="black" points="244.5,-47.0817 241,-37.0817 237.5,-47.0818 244.5,-47.0817"/>
</g>
</g>
</svg>
